<?xml version="1.0" encoding="utf-8"?>
<svg xmlns="http://www.w3.org/2000/svg" version="1.1" viewBox="0 0 1865 342">
	<title>Walt Whitman.</title>
	<path d="m25.743 325.12c-1.6537-0.33147-4.0817-1.3659-5.3957-2.2988l-2.389-1.6962 0.57129-4.8038c0.31421-2.6421 1.5205-7.0154 2.6807-9.7185 2.3449-5.4633 12.514-16.263 17.931-19.043 1.8652-0.95716 8.4433-6.5334 14.618-12.392 17.573-16.672 25.63-23.495 37.228-31.521 5.9193-4.0966 13.326-10.077 16.46-13.289 6.3759-6.5356 16.469-15.298 24.916-21.631 3.0878-2.3151 9.0052-7.0491 13.15-10.52 4.1447-3.4709 9.7183-7.6815 12.386-9.357 7.6163-4.7837 20.675-18.204 30.818-31.669 6.9061-9.1689 9.4247-13.324 9.8079-16.181 0.30692-2.2883 2.1768-6.164 4.62-9.5759 4.2823-5.9802 4.9676-8.4449 2.839-10.211-0.92092-0.76429-2.8025-0.18506-6.9113 2.1276-3.1052 1.7478-7.8233 4.8807-10.485 6.962-2.6613 2.0813-8.6637 6.3124-13.339 9.4025-10.763 7.114-28.036 20.387-38.868 29.867-2.5476 2.2297-6.6491 5.6047-9.1144 7.5-5.8145 4.4702-6.5747 5.091-12.518 10.223-2.75 2.3747-6.575 5.5979-8.5 7.1627s-4.5125 4.3322-5.75 6.1498c-1.7076 2.508-2.25 4.7313-2.25 9.2229 0 4.4731-0.50608 6.5616-2.0726 8.553-2.5091 3.1898-6.131 3.4178-10.638 0.66961-2.4443-1.4904-3.5783-3.2218-4.7501-7.2525-1.7624-6.0624-1.3806-8.1057 3.3322-17.831 3.5369-7.2985 17.353-23.239 26.299-30.342 3.1184-2.4761 8.2934-5.9638 11.5-7.7505 3.2066-1.7867 9.2052-6.1268 13.33-9.6446 4.125-3.5179 9.75-7.5392 12.5-8.9363 5.6562-2.8735 20.474-12.867 25-16.861 1.65-1.456 6.15-4.6974 10-7.203s7.9-5.34 9-6.2987c1.1-0.95869 4.6738-2.5138 7.9417-3.4557 7.3547-2.12 17.335-1.4666 21.358 1.3981 3.2507 2.315 5.6953 9.7078 4.8772 14.749-0.31391 1.9344-1.4464 5.1768-2.5167 7.2053-1.0703 2.0285-3.3422 6.3882-5.0487 9.6882-1.7065 3.3-4.6584 8.7-6.5596 12s-3.4782 6.5514-3.5042 7.2252c-0.0604 1.5648 0.99979 1.1512 17.953-7.0043 7.425-3.5719 16.393-7.4726 19.929-8.6682 3.5358-1.1956 7.3301-2.6562 8.4317-3.2457 2.9175-1.5614 12.563-3.7302 16.773-3.7714l3.6336-0.0356 3.6164 4.0029c1.989 2.2016 3.6164 4.4812 3.6164 5.0657 0 0.58458-0.4783 1.9566-1.0629 3.0489-0.58459 1.0923-1.969 5.4456-3.0766 9.6741s-2.4799 8.2498-3.0497 8.9364c-0.74261 0.8948-0.60182 1.415 0.49711 1.8367 1.6208 0.62196 9.313-3.2424 12.48-6.2698 1.0328-0.98717 4.0904-3.1248 6.7948-4.7502 2.7044-1.6254 7.8421-4.7214 11.417-6.88s10.693-5.8907 15.818-8.2936c5.1251-2.4029 11.2-5.6197 13.5-7.1483 2.3-1.5286 7.1067-4.1073 10.682-5.7305s8.075-3.8955 10-5.0497 11.15-6.0563 20.5-10.894c9.35-4.8374 17.45-9.1425 18-9.5669 3.1009-2.3931 30.032-15.635 39.685-19.513 6.2232-2.5002 13.34-5.3969 15.815-6.4372 12.395-5.2096 27.43-10.104 35.5-11.555 10.876-1.9564 29.371-4.3948 39.184-5.1662l7.1843-0.56476 8.3157 3.8346c11.059 5.0996 17.709 9.346 22.586 14.421 4.4608 4.6423 8.2167 13.214 8.2543 18.838 0.0134 2.0136 0.49993 5.686 1.0811 8.161 1.4989 6.3836 1.3404 10.983-0.43979 12.763l-1.5343 1.5343-2.9491-1.2216c-2.21-0.9154-3.7241-2.895-6.0412-7.8986-5.8586-12.651-8.4128-16.308-13.985-20.022l-5.3437-3.5622-15.656 0.05407c-14.663 0.05064-29.226 1.7352-37.656 4.3556-1.65 0.51289-7.05 1.8775-12 3.0324s-10.085 2.5432-11.412 3.085c-1.3265 0.54178-7.4015 2.0702-13.5 3.3966-15.564 3.3849-27.815 7.7755-51.22 18.356-5.0226 2.2705-9.4578 4.1282-9.8558 4.1282s-7.5386 3.3404-15.868 7.4231c-8.3293 4.0827-17.619 8.5646-20.644 9.9597s-8.65 4.3226-12.5 6.5055c-3.85 2.1829-12.102 6.4636-18.338 9.5128s-14.111 7.4382-17.5 9.7533c-3.3889 2.3152-10.194 6.94-15.122 10.277-8.5567 5.7945-20.876 17.081-26.816 24.568-1.5272 1.925-8.1637 9.1712-14.748 16.103-12.776 13.45-28.648 32.748-36.105 43.897-1.6553 2.475-6.0197 9-9.6988 14.5-11.208 16.756-14.319 20.424-20.531 24.208-10.994 6.6976-17.338 9.2918-22.722 9.2918-2.7774 0-5.9202-0.46583-6.9841-1.0352l-1.9343-1.0352v-11.478l4.3688-7.6662c2.4028-4.2164 5.7493-9.4093 7.4367-11.54 1.6873-2.1304 3.583-5.0041 4.2126-6.3859 0.62959-1.3818 7.4945-8.553 15.255-15.936s17.223-17.361 21.027-22.174 7.2951-8.75 7.7575-8.75c0.46241 0 2.8907-2.8728 5.3962-6.384s6.2747-7.8987 8.3759-9.75c2.1012-1.8513 4.6559-4.716 5.6772-6.366s2.8395-4.125 4.0406-5.5 3.5296-4.975 5.1744-8c1.6448-3.025 4.3436-7.75 5.9972-10.5 8.4513-14.055 11.28-19.274 11.28-20.81 0-1.1079-0.81066-1.6899-2.3539-1.6899-2.5195 0-21.121 8.2996-23.687 10.569-0.8473 0.74927-3.9973 2.6213-7 4.16-3.0027 1.5387-6.8095 3.6649-8.4595 4.7249-15.245 9.7932-20.84 13.581-26 17.603-3.3 2.5723-7.4702 5.4274-9.2671 6.3445-4.9263 2.5145-19.395 13.776-31.733 24.699-10.198 9.0288-18.667 17.768-22.443 23.162-0.86162 1.2306-3.8144 4.5335-6.5618 7.3397-7.9566 8.1268-17.78 19.307-20.495 23.324-8.0421 11.901-18.678 22.9-30.5 31.544-2.2 1.6084-4.225 3.2166-4.5 3.5737s-4.2762 3.2395-8.8915 6.4054c-11.324 7.7676-21.872 11.206-29.615 9.6537zm1798.5-4.7702c-3.575-0.78606-8.9096-1.871-11.855-2.4111-2.945-0.54004-6.77-1.6269-8.5-2.4153-5.2871-2.4094-12.911-7.1257-16.81-10.399-2.0357-1.7091-4.4413-3.1075-5.3456-3.1075-1.6955 0-5.6667-3.7709-8.7435-8.3025l-1.7532-2.5822-4.5857 2.0285c-2.797 1.2372-5.5408 1.7887-7.0345 1.4138-1.374-0.34485-5.3316 0.27574-9.0165 1.4139-3.6122 1.1157-7.8102 2.0285-9.3289 2.0285-4.2605 0-13.218-3.9447-16.304-7.18l-2.7763-2.9105 0.3492-6.7047c0.2576-4.9461 1.1825-8.4643 3.5263-13.413 1.7475-3.6896 3.1772-6.8994 3.1772-7.133 0-0.92628-8.1124 2.4836-20 8.4066-6.875 3.4255-13.13 6.7246-13.899 7.3314s-4.1446 2.1694-7.5 3.4723c-24.641 9.5685-28.721 10.048-39.916 4.6963-11.209-5.3588-12.638-7.0669-14.108-16.864-0.8333-5.5536-1.4774-7.2529-2.8492-7.5163-0.9748-0.1872-3.9855 1.2496-6.6904 3.1928-2.7048 1.9432-7.6181 4.8962-10.918 6.5622-13.544 6.8372-19.857 7.5764-27.119 3.1754-3.4263-2.0766-4.8571-3.7471-5.9967-7.0014l-1.4967-4.2741-22.714 0.65997-6.724 8-10.784-0.0548c-6.8508-0.0348-11.65-0.52787-13.159-1.3518-1.5258-0.83342-5.7542-1.2537-11.829-1.1759l-9.4549 0.12119-3.6706-1.9384c-2.0188-1.0661-5.9206-2.4586-8.6706-3.0945-5.2726-1.2191-8.5-3.3868-8.5-5.7092 0-0.76633 0.8969-3.2497 1.9931-5.5186s1.8569-4.2615 1.6903-4.428c-0.1665-0.16653-1.6593 0.47407-3.3172 1.4236-7.4706 4.2784-13.258 7.752-18.097 10.86-2.8768 1.8483-8.2016 4.9368-11.833 6.8632l-6.6025 3.5027h-5.6811c-5.5676 0-14.843-2.6683-17.797-5.1195-2.5294-2.0992-4.4023-6.6824-5.1721-12.657l-0.7376-5.7238-1.9705 0.35064c-1.0838 0.19285-3.8085 1.9928-6.0549 4-6.3391 5.6641-8.047 6.9179-12.558 9.2192-2.3087 1.1778-5.5489 3.4044-7.2004 4.9478-3.1538 2.9474-9.7682 4.62-13.239 3.3477-4.9303-1.8073-15.731-9.0433-16.494-11.05-1.2454-3.2757 2.2541-13.017 6.0162-16.747 3.3042-3.276 7.2069-8.2935 12.109-15.568l3.0325-4.5-1.9262-0.30415c-1.8466-0.29157-10.784 4.7942-18.161 10.335-4.7117 3.5386-26.456 15.732-34.786 19.506-3.6929 1.6732-7.8393 3.6414-9.2143 4.3738-1.375 0.73239-4.3 1.8945-6.5 2.5824s-5.575 2.0894-7.5 3.1144c-5.4964 2.9266-22.922 7.3242-29.165 7.3601l-5.6653 0.0326-4.2486-3c-2.8613-2.0204-4.7354-4.3413-5.7394-7.1077l-1.4909-4.1077 3.2282-5.6423c1.7755-3.1032 2.737-5.6423 2.1367-5.6423s-3.9012 1.6875-7.3354 3.75c-8.7086 5.2302-29.485 15.438-40.22 19.76-15.727 6.3326-29.066 7.9957-39.434 4.9167-6.075-1.8041-10.066-5.5239-10.066-9.3819 0-1.4646-0.6142-3.5028-1.3649-4.5294l-1.3649-1.8666-4.9164 2.5707c-2.704 1.4139-7.8273 3.7857-11.385 5.2707-3.5578 1.485-7.8187 3.3053-9.4687 4.0451s-7.275 3.0169-12.5 5.0602l-9.5 3.7151-9.921-0.15247c-7.3933-0.11362-10.578-0.57971-12.5-1.8294-4.9543-3.2214-14.079-13.019-14.079-15.117 0-3.1553 1.6027-6.7212 4.2019-9.3491 3.8505-3.893 11.374-14.088 13.552-18.363 1.8767-3.684 3.5457-6.3888 12.181-19.739 3.3572-5.1906 3.9609-9.4798 1.4688-10.436-1.6202-0.62172-8.8265 1.8649-17.904 6.1778-2.75 1.3067-6.2547 2.8486-7.7882 3.4264-5.5475 2.0904-22.292 12.544-25.712 16.051-1.925 1.9745-5.7335 5.1493-8.4633 7.0551s-6.8395 5.2651-9.1327 7.4651-6.9234 6.475-10.289 9.5c-3.366 3.025-9.4305 8.6546-13.477 12.51-4.0464 3.8556-9.9558 8.3556-13.132 10-3.1764 1.6444-6.7271 4.2736-7.8905 5.8426s-4.5589 4.4792-7.5457 6.467l-5.4305 3.6142-10.12 0.066-1.451-4.1698-1.451-4.1698 2.9347-4.2348c1.6141-2.3292 4.7378-5.9538 6.9416-8.0546 8.314-7.926 22.577-20.545 28.425-25.148 3.3378-2.6274 6.9409-6.4524 8.0069-8.5s3.4569-4.7338 5.313-5.9692c5.6838-3.7832 37.178-37.215 41.149-43.681 1.0377-1.6898 3.813-5.3272 6.1672-8.0832 5.171-6.0535 11.537-17.723 10.545-19.329-0.4974-0.80479-3.7562 0.35383-10.658 3.7892-5.4677 2.7216-16.372 8.103-24.231 11.959-7.8596 3.8556-15.458 7.9286-16.885 9.0512s-3.3459 2.041-4.2641 2.041c-0.9181 0-3.7785 1.3376-6.3564 2.9724s-6.3785 3.8125-8.4458 4.8392-8.0337 4.2574-13.259 7.1793c-5.225 2.9219-12.425 6.9-16 8.8404-3.575 1.9403-8.075 4.7768-10 6.3034s-5.75 3.9585-8.5 5.4042c-2.75 1.4458-6.125 3.6292-7.5 4.8519s-4.4745 3.4825-6.8878 5.0216c-2.4133 1.5391-5.7883 4.1012-7.5 5.6936-1.7117 1.5924-7.6122 6.0574-13.112 9.9221s-10.45 7.595-11 8.2896c-0.55 0.69456-3.925 3.6608-7.5 6.5915s-12.835 11.463-20.577 18.96c-9.288 8.9936-16.339 14.909-20.724 17.388l-6.6474 3.757-6.8742 0.2072c-8.1262 0.24494-11.655-1.5122-13.005-6.4763-1.5328-5.6356 0.48776-8.6158 10.336-15.245 9.2185-6.2053 20.006-16.248 28.015-26.08 2.5357-3.1132 5.8181-6.6901 7.294-7.9487 5.7246-4.8814 12.927-12.356 18.465-19.164 3.1799-3.9087 8.5799-10.018 12-13.575 3.4201-3.5576 7.3434-8.3819 8.7184-10.721 1.375-2.3387 3.9625-5.94 5.75-8.0029s3.25-4.0584 3.25-4.4344 1.9125-3.4016 4.25-6.7236c6.8428-9.7248 8.7161-13.178 8.7336-16.1 9e-3 -1.5125-0.93959-3.706-2.1081-4.8745l-2.1245-2.1245-4.6255 0.55457c-2.786 0.33402-7.6082 2.2384-12.125 4.7886-4.125 2.3287-10.65 5.8864-14.5 7.9059-12.437 6.5238-21.479 11.816-25.283 14.797-2.0446 1.6024-4.8424 3.4818-6.2174 4.1764s-4.075 2.7178-6 4.4959c-1.925 1.7781-6.206 4.8428-9.5134 6.8104-3.3074 1.9676-7.5824 4.9466-9.5 6.62-1.9176 1.6734-9.1116 7.3472-15.987 12.608-17.547 13.428-22.508 17.346-28.48 22.492-2.8725 2.475-8.2749 6.75-12.005 9.5s-8.4098 6.2323-10.399 7.7385c-1.9888 1.5062-4.966 3.6148-6.616 4.6858-1.65 1.071-4.3747 3.3534-6.0549 5.0721-1.6802 1.7186-3.9919 3.66-5.137 4.3142s-6.2784 4.9022-11.407 9.4399-10.917 9.0512-12.863 10.03c-1.9458 0.97872-5.6668 3.0412-8.2688 4.5834l-4.7309 2.8039-3.5268-1.1639c-1.9397-0.64016-3.9733-1.9983-4.5191-3.0181-1.4535-2.716-1.2103-9.6761 0.44689-12.785 1.3756-2.581 5.3671-6.3876 20.657-19.7 14.065-12.246 16.165-13.981 19.046-15.733 1.6204-0.9854 6.4784-5.2737 10.796-9.5294 8.0104-7.8964 16.149-14.88 26.195-22.478 3.0979-2.343 11.038-8.985 17.645-14.76s13.723-11.625 15.815-13c2.0911-1.375 6.5258-5.1174 9.8549-8.3166 7.777-7.4734 26.42-23.016 29.601-24.678 5.875-3.0705 31.075-26.818 33.239-31.324 3.2377-6.7395 5.1146-11.992 4.9703-13.909-0.24887-3.3039-3.2508-5.7724-7.0198-5.7724-4.6831 0-14.655 5.0064-20.738 10.411-5.5323 4.9158-6.154 5.5287-10.785 10.632-1.7684 1.9488-4.5473 4.4871-6.1753 5.6407l-2.9601 2.0975-0.0798 18.719h-4.391c-2.8962 0-4.6516-0.51063-5.1565-1.5-2.9264-5.7341-5.9525-14.223-5.9525-16.697 0-1.6208 0.71785-5.0536 1.5952-7.6285 1.7195-5.0463 6.5293-9.877 14.405-14.467 2.475-1.4426 7.9459-5.5668 12.158-9.165 5.2461-4.482 11.544-8.48 20-12.696 6.7883-3.3845 13.949-6.647 15.913-7.25 8.3701-2.5699 16.56-0.26816 20.643 5.8014l2.2857 3.3979 0.1797 12.602c0.0988 6.9312 0.0705 14.135-0.0629 16.01-0.56883 7.989-8.1804 18.231-22.922 30.843-4.018 3.4375-6.8855 6.25-6.3721 6.25 1.8623 0 7.8682-2.9223 9.1297-4.4422 0.71106-0.85678 1.9277-1.5578 2.7036-1.5578s3.7078-1.2375 6.5152-2.75 6.955-3.7359 9.2168-4.941c3.0901-1.6464 5.9034-2.2056 11.317-2.25l7.2051-0.059 6.6542 3.1785c5.2728 2.5187 7.2503 4.1275 9.5259 7.75l2.8717 4.5715 0.019 6.384c0.0104 3.5112-0.53066 8.2362-1.2025 10.5-0.67181 2.2638-2.8798 6.3171-4.9066 9.0072-2.0268 2.6902-4.2824 6.0652-5.0125 7.5-0.73003 1.4348-4.1855 6.2088-7.6788 10.609l-6.3515 8 2.1934 0.33369c1.2826 0.19513 3.2905-0.66314 4.8354-2.0668 1.4532-1.3203 5.7921-4.3536 9.6421-6.7407 3.85-2.3871 8.6778-5.3946 10.729-6.6832s4.0072-2.343 4.3477-2.343c0.34054 0 4.0627-2.4091 8.2714-5.3536 4.2087-2.9445 11.927-7.4682 17.152-10.053 5.225-2.5845 12.65-6.6741 16.5-9.088s8.6069-4.6848 10.571-5.0465 5.564-1.7378 8-3.058c8.392-4.5482 25.207-12.433 27.815-13.043 1.4375-0.33611 4.6387-1.814 7.1137-3.2841 2.475-1.4702 6.881-3.2097 9.7911-3.8656 8.065-1.8178 14.487-6.9458 18.496-14.77 0.8629-1.6837 3.0678-4.3837 4.8998-6 1.832-1.6162 4.6768-4.934 6.3219-7.3728 5.5031-8.1587 52.864-56.21 60.368-61.248 2.5429-1.7072 6.1984-4.5575 8.1234-6.3339 3.0994-2.8602 20.147-13.484 21.637-13.484 0.3165 0 2.2151-1.2683 4.2193-2.8184 2.0041-1.5501 5.2189-3.5276 7.1439-4.3945s5.525-2.4787 8-3.5818c9.3956-4.1878 16.636-5.2451 37.532-5.4803l19.998-0.22506 5.69 3.4339c3.4817 2.1012 6.1478 4.5391 6.8695 6.2815 0.7143 1.7244 0.973 5.4203 0.656 9.3698-0.9589 11.946-7.5963 22.233-26.245 40.677-10.701 10.584-16.28 14.868-27 20.735-16.466 9.0112-37.076 18.991-39.231 18.997-1.2271 3e-3 -5.0521 1.3282-8.5 2.9442-7.7784 3.6458-9.0486 4.1128-15.269 5.6133-5.3379 1.2876-27.188 7.0112-39.394 10.319-5.6769 1.5385-8.3141 2.889-11.358 5.8165-2.1805 2.097-5.654 6.0628-7.719 8.8128-2.0649 2.75-6.6657 8.15-10.224 12s-7.9277 9.7-9.7101 13-4.5581 7.6611-6.1682 9.6914c-1.61 2.0302-2.9274 4.1126-2.9274 4.6276 0 0.5149-0.675 1.4964-1.5 2.1811s-1.5 1.689-1.5 2.2318c0 1.3008 5.0495 0.46866 12.5-2.0601 11.054-3.7518 14.185-4.3994 18.605-3.8486 7.3376 0.91432 11.288 1.8996 13.559 3.3816 5.5007 3.5902 6.9327 15.102 3.2674 26.267-1.1378 3.466-3.9905 9.2778-6.3393 12.915s-5.5457 8.8633-7.1042 11.613-4.0959 6.5814-5.6385 8.5142c-3.0389 3.8073-4.6677 9.362-3.0403 10.368 0.5557 0.34345 3.1134-0.27697 5.6837-1.3787 2.5703-1.1018 5.3025-2.0032 6.0717-2.0032s5.1194-1.731 9.6671-3.8466 12.769-5.6014 18.269-7.7463c6.002-2.3406 11.504-5.251 13.761-7.2797 2.0685-1.859 5.8436-6.3606 8.389-10.004 2.5455-3.6431 5.4239-7.1826 6.3965-7.8656 0.9726-0.68301 3.7226-3.0855 6.111-5.3388s6.5926-5.4028 9.3426-6.9988l5-2.9018 13.596-0.018 2.4522 2.646c1.3993 1.5098 2.4523 3.8585 2.4523 5.4696 0 3.645-3.0091 8.9446-8.2591 14.546-2.2988 2.4527-5.7684 6.6572-7.7103 9.3435-1.9418 2.6863-5.2551 6.9131-7.3629 9.393-2.1181 2.492-3.6793 5.3032-3.4903 6.2848 0.1881 0.97675 1.5445 2.1988 3.0142 2.7156 2.0593 0.72424 4.6944 0.28999 11.49-1.8936 4.8499-1.5583 12.193-4.7034 16.318-6.989 11.798-6.5382 25.88-13.517 27.273-13.517 0.6991 0 2.836-1.2686 4.7489-2.8191 1.9128-1.5505 8.2982-5.1633 14.19-8.0285l10.712-5.2094 13.288-12.697c7.3084-6.9832 17.788-17.288 23.288-22.9 5.5-5.6119 14.275-13.379 19.5-17.26s13.55-10.449 18.5-14.595c19.518-16.347 25.788-20.491 31-20.491 4.0739 0 6.4995 2.882 6.4995 7.7225 0 3.5656-2.1127 6.2502-6.8442 8.6969-1.6228 0.83918-4.2982 3.716-5.9454 6.393-1.6471 2.677-8.3308 10.33-14.853 17.007-6.5218 6.677-13.892 14.287-16.379 16.91-2.4866 2.6236-6.7616 6.799-9.5 9.2786-5.6975 5.1592-21.547 22.4-22.848 24.853-0.4779 0.90139-2.8186 3.6639-5.2017 6.1389-2.383 2.475-6.6544 7.3527-9.4919 10.839-3.6845 4.5274-4.8513 6.647-4.0823 7.416 0.769 0.769 3.3584-0.11397 9.0599-3.0893 4.3907-2.2913 8.7616-4.166 9.713-4.166s3.3368-0.52215 5.3008-1.1603c4.3039-1.3985 21.441-9.6347 29.071-13.972 3.025-1.7195 7.975-4.4639 11-6.0987 3.025-1.6348 6.1759-3.5705 7.002-4.3015s4.4261-2.6973 8-4.3696c3.5739-1.6723 9.198-5.0817 12.498-7.5764 9.3023-7.0323 11.81-8.5141 14.412-8.5182 1.3268-2e-3 4.5372-1.3672 7.1342-3.0337l4.7219-3.03 7.5417-0.15382c7.7311-0.15769 9.7514 0.59205 11.773 4.3689 0.6821 1.2744 0.3769 4.2179-1.0183 9.824-1.0957 4.4024-2.571 9.1006-3.2785 10.44-0.7074 1.3397-2.9539 4.3809-4.9922 6.7582-2.0382 2.3773-5.3803 6.7896-7.4267 9.8052s-4.6537 6.2631-5.794 7.2167l-2.0733 1.7339 1.6357 0.0333c2.1282 0.0433 6.5261-2.3845 19.423-10.722 1.7648-1.1409 7.8205-4.1482 12.957-6.4345 1.1084-0.49338 2.9084-2.565 4-4.6037 1.4841-2.7716 2.7235-3.7908 4.9135-4.0403 3.2865-0.37443 10.114 2.9459 12.799 6.224 2.3165 2.8287 2.283 10.801-0.074 17.703-1.0157 2.9736-1.6532 5.969-1.4167 6.6566 0.2366 0.6875 1.1873 1.25 2.1127 1.25 0.9255 0 6.4005-2.7514 12.167-6.1143s12.734-7.1402 15.484-8.394 7.7622-3.8495 11.138-5.7682c7.8891-4.4836 15.762-7.0908 18.976-6.2842 3.6705 0.92124 5.3867 5.9525 5.3823 15.779 0 6.5122-0.4304 8.9818-2 11.556-1.098 1.8008-1.9963 3.696-1.9963 4.2115 0 0.5155 1.9125 1.4068 4.25 1.9808s6.05 1.9425 8.25 3.0413c4.8119 2.4034 8.7777 2.5188 14.624 0.42583 4.0451-1.4481 15.954-2.164 23.441-1.4092 1.8479 0.1863 4.2304-0.48199 6-1.683 9.3931-6.3753 12.476-8.3026 17.435-10.899 3.025-1.5841 6.4557-3.5892 7.6239-4.4558 1.1681-0.86665 4.6181-2.4236 7.6667-3.4598l5.5429-1.8841 10.269 3.3166 5.2794-2.9795c4.0891-2.3078 6.5229-2.9795 10.795-2.9795 3.0735 0 6.9484 0.71483 8.7518 1.6145 2.8084 1.401 6.8627 1.8611 20.25 2.2981 3.4875 0.11384 5.8214 2.5281 5.8214 6.022 0 2.0836-1.2488 3.9044-4.9234 7.1786-2.7079 2.4128-6.2374 5.3752-7.8433 6.5831l-2.9198 2.1962-1.0992 6.6331c-1.2561 7.5802-0.2675 11.172 3.3229 12.073 2.9775 0.74732 9.8172-1.1812 16.463-4.6419 3.025-1.5753 10-4.934 15.5-7.4639s11.575-5.4834 13.5-6.5632 8.1856-4.2585 13.912-7.0636c7.399-3.6242 12.257-5.3289 16.786-5.8906 3.5055-0.43474 6.9311-1.2531 7.6125-1.8186 0.6814-0.5655 3.5142-1.33 6.2951-1.6989l5.0562-0.67073 4.0353 2.0586c2.2194 1.1323 5.4453 3.2452 7.1688 4.6953 2.3417 1.9705 3.1335 3.4677 3.1335 5.9257 0 1.8089-0.7277 5.0314-1.6171 7.1611-1.4409 3.4503-2.8605 5.4291-9.2345 12.872-3.3441 3.9049-5.2925 7.6822-4.7252 9.1604 0.4297 1.1199 1.3971 1.3241 3.826 0.80769 1.7879-0.38013 5.2758-1.7323 7.7508-3.0048 7.9958-4.1109 18.956-8.4634 21.313-8.4634 3.5598 0 11.322 5.4612 14.166 9.9671l2.5674 4.0671 0.2267 11.196 0.2266 11.196 2.5 1.2284c1.375 0.67562 8.0921 2.0422 14.927 3.0369 8.3147 1.2101 13.196 2.4117 14.75 3.6311l2.323 1.8226v9.7414l-2.2225 1.5567c-2.7606 1.9336-11.696 1.8859-20.778-0.11088zm-206-73.332c1.375-1.0755 3.0074-1.9655 3.6276-1.9778 0.6201-0.0122 1.6441-0.64469 2.2755-1.4055 0.8821-1.0629 0.8108-1.5126-0.3078-1.9418-1.5702-0.60254-9.5953 4.6927-9.5953 6.3313 0 1.4808 1.2094 1.1766 4-1.0063zm-467.39-130c1.8948 0 6.1183-1.3494 9.3855-2.9987s9.6668-3.9433 14.222-5.0979c7.5566-1.9156 31.598-12.722 37.839-17.009 1.4067-0.9662 4.5567-2.5398 7-3.4969 2.4432-0.9571 6.2423-2.941 8.4423-4.4086s6.8012-4.1472 10.225-5.9547c4.2209-2.2283 7.4971-4.9358 10.177-8.4103 2.1735-2.8182 7.8063-9.399 12.517-14.624 9.7501-10.814 10.512-13.197 5.5516-17.371-3.4415-2.8958-8.3843-4.1048-13.808-3.3774-2.0408 0.27372-7.0748 2.1682-11.187 4.2099s-10.35 4.801-13.862 6.1318c-5.7302 2.1712-8.8122 4.2861-17.114 11.744-1.375 1.2352-5.5127 4.6506-9.1949 7.5898-3.6823 2.9392-6.9034 5.8871-7.1581 6.551-0.2548 0.66382-3.767 3.6994-7.8051 6.7458-4.038 3.0464-13.847 12.23-21.798 20.408-13.476 13.861-18.158 19.372-17.966 21.143 0.043 0.39921 0.306 0.16333 0.5834-0.52417s2.0547-1.25 3.9496-1.25zm-898.45 183.05c-3.6745-0.91691-9.5337-6.0304-11.744-10.249-0.77807-1.4852-1.4147-5.0912-1.4147-8.0134v-5.313l3.5-5.1972c1.925-2.8585 3.5-5.6529 3.5-6.2099s1.7396-2.9372 3.8657-5.2894c2.1261-2.3522 8.0062-8.875 13.067-14.495s12.209-12.417 15.884-15.104c3.6757-2.6871 7.8081-5.9979 9.1831-7.3574 1.375-1.3595 7.45-6.2557 13.5-10.881 13.176-10.072 12.06-9.188 17-13.47 2.2-1.9072 4.3563-3.4679 4.7918-3.4684 0.4355-4.3e-4 1.7855-0.93997 3-2.0879 6.9743-6.5918 25.173-10.968 33.092-7.957 1.3828 0.52576 3.8663 2.3707 5.5188 4.0999 3.4408 3.6005 4.5671 8.77 3.905 17.924l-0.42818 5.9196-3.4398 3.5399c-2.5233 2.5967-4.2964 3.5427-6.6547 3.5505-4.6937 0.0155-5.6026-2.4264-3.0759-8.2635 2.5547-5.9017 1.7015-7.1873-5.8037-8.7454l-5.4407-1.1295-4.8648 1.6158c-2.6757 0.88872-5.7053 2.5451-6.7325 3.681-1.0272 1.1358-3.5146 2.9057-5.5276 3.9331-2.013 1.0274-6.3664 4.467-9.6742 7.6436-3.3078 3.1766-6.8358 6.486-7.84 7.3543-1.0042 0.86828-5.6828 5.5933-10.397 10.5-4.7141 4.9067-12.884 13.113-18.156 18.235l-9.5849 9.314-3.5196 8.1732c-3.7703 8.7554-3.5898 10.699 0.9939 10.699 1.3296 0 4.1815-0.9 6.3377-2s4.5916-2 5.412-2c0.82041 0 7.5133-3.0375 14.873-6.75 7.3598-3.7125 14.919-7.4776 16.798-8.3668s6.1167-3.0891 9.4167-4.8886c8.0122-4.369 18.195-9.3474 22.5-11 1.925-0.73903 4.85-2.2625 6.5-3.3854 5.5384-3.7694 11.668-10.074 13.08-13.455 0.77046-1.844 3.6551-5.8192 6.4103-8.8339s5.0095-5.9479 5.0095-6.5183c0-0.57039 2.3721-4.2466 5.2713-8.1694 2.8992-3.9228 6.0341-8.8035 6.9665-10.846 0.93234-2.0425 3.4256-4.8588 5.5407-6.2585 2.9653-1.9624 5.2667-2.584 10.055-2.716 4.8649-0.13408 6.7998 0.26921 8.938 1.863 1.501 1.1188 3.5538 3.4424 4.5618 5.1637l1.8328 3.1296-1.0823 3.2659c-0.59524 1.7962-2.4694 4.8409-4.1649 6.7659-1.6954 1.925-3.9085 5.3632-4.918 7.6405s-3.785 6.9315-6.1679 10.343c-2.3829 3.4112-5.0075 7.2066-5.8325 8.4341-4.2812 6.37-12.354 16.583-13.108 16.583-1.0507 0-6.8915 11.36-6.8915 13.404 0 0.80362 0.883 1.7414 1.9622 2.0839 2.083 0.66112 5.2506-0.62517 8.5378-3.467 2.2928-1.9822 6.8205-4.3185 32.5-16.771 10.175-4.9339 19.625-9.2493 21-9.5898 4.2647-1.0562 9.002-4.5352 10.092-7.4111 0.57293-1.5122 1.8464-3.6495 2.83-4.7495s4.3203-6.3483 7.4148-11.663c4.3102-7.4023 7.4035-11.262 13.222-16.5 4.1778-3.7604 8.8284-7.5121 10.335-8.3371 1.5062-0.825 4.4456-2.8284 6.5318-4.452 2.0863-1.6236 5.5087-3.8736 7.6054-5 5.6771-3.0498 21.428-13.481 27.311-18.087 6.5178-5.103 20.732-12.796 28.331-15.334 3.205-1.0703 8.8827-2.2661 12.617-2.6574 5.2814-0.55345 7.7741-0.33551 11.222 0.98108 2.4376 0.93092 5.6232 3.1083 7.0792 4.8386l2.6472 3.146-0.46895 6.5321c-0.69663 9.7038-3.2542 13.843-12.758 20.647-4.4056 3.1542-8.0102 6.0314-8.0102 6.3936 0 1.0757-9.9762 7.5158-17.5 11.297-3.85 1.9349-9.1617 4.22-11.804 5.0781-4.5127 1.4656-20.214 10.991-23.448 14.225-1.9474 1.9474-9.8202 5.8964-16.977 8.5159-3.1742 1.1617-6.2805 2.6215-6.9029 3.2439-1.6753 1.6753-4.9183 11.2-6.4018 18.802l-1.3016 6.6698 1.6021 2.4451c0.88114 1.3448 3.4468 3.4066 5.7016 4.5818l4.0995 2.1368 7.5831-1.5663c4.1707-0.86148 8.3179-1.9157 9.216-2.3428 3.4938-1.6613 17.836-6.3395 21.633-7.0563 2.2-0.41534 6.025-1.5282 8.5-2.4731s6.3902-2.1157 8.7004-2.6019c2.3102-0.48621 5.1036-1.4481 6.2076-2.1375s3.2112-3.5197 4.6826-6.2895c4.0802-7.6802 12.619-18.491 18.84-23.851 3.0733-2.6485 8.0648-8.0485 11.092-12 3.0276-3.9515 7.261-9.3927 9.4076-12.091 4.5956-5.7776 16.49-17.099 23.57-22.434 7.5114-5.6606 20.016-12.159 23.397-12.159 3.5576 0 7.7838 3.4571 8.6247 7.0549 0.41971 1.7959-0.4024 4.4696-2.7672 9-1.8504 3.5448-4.0068 8.4701-4.7921 10.945l-1.4278 4.5-13.767 13.785c-7.572 7.5818-13.767 14.186-13.767 14.676 0 0.76428-21.421 20.546-30.362 28.038-6.916 5.7956-7.6383 6.8188-7.6383 10.82 0 2.442 0.77832 4.9001 2.0726 6.5454l2.0726 2.6349h5.7332c3.1533 0 8.4081-0.85365 11.677-1.897 3.2693-1.0433 9.7692-2.8966 14.444-4.1184s10.872-3.0653 13.771-4.0967c11.857-4.2187 22.388-3.3779 23.711 1.8932l0.67515 2.69-3.0705 2.7435c-1.6888 1.5089-4.3114 3.0427-5.8282 3.4084-1.5167 0.36571-5.3324 1.9502-8.4792 3.521-3.1468 1.5708-6.9331 2.8561-8.414 2.8561s-8.8062 2.0817-16.279 4.626c-19.817 6.7474-26.919 8.1545-39.399 7.8053-5.811-0.1626-11.605-0.83398-12.876-1.492-5.5303-2.8628-8.7921-7.6862-9.7646-14.439l-0.57602-4-1.9852 0.16912c-1.0918 0.093-5.1352 1.2826-8.9852 2.6436-13.365 4.7245-36.038 10.668-43 11.272-8.0274 0.69665-19.909-0.73053-27.568-3.3115l-5.2636-1.7737-6.3159-9c-3.4737-4.95-7.0221-10.015-7.8854-11.256l-1.5695-2.256-3.6988 2.9453c-2.0343 1.6199-6.249 3.891-9.3658 5.0468-3.1168 1.1558-6.801 2.9935-8.1871 4.0838-4.698 3.6955-32.987 15.658-44.626 18.871-8.764 2.4194-12.883 2.5815-17.302 0.68125-4.4307-1.9051-10.21-8.1886-12.68-13.787-1.1336-2.5688-2.6183-4.8692-3.2994-5.112-0.68109-0.24278-3.3236 1.0715-5.8723 2.9206-2.5487 1.8491-5.2717 3.362-6.0512 3.362s-4.2795 1.9125-7.7778 4.25-8.4605 5.394-11.027 6.7922c-2.5665 1.3982-5.9294 3.5357-7.473 4.75s-3.1834 2.2078-3.6438 2.2078c-0.76791 0-10.236 4.3163-25.393 11.577l-6 2.874-9.5 0.21597c-5.225 0.11879-11.004-0.15922-12.841-0.6178zm246.54-90.414c0.43983-0.75049 2.3747-2.1584 4.2997-3.1288 1.925-0.97033 8.2467-4.6192 14.048-8.1087s12.327-6.983 14.5-7.7635c6.5946-2.3682 18.295-9.9836 26.212-17.061 3.6001-3.218 5.2517-7.7127 4.253-11.574l-0.64664-2.5-3.9912-0.29811c-3.0724-0.22947-5.2643 0.4612-9.5211 3-9.8583 5.8797-17.836 11.198-24.074 16.048-3.3598 2.6125-6.4427 4.75-6.851 4.75-0.71258 0-2.5566 2.3078-12.386 15.5-2.4587 3.3-4.937 6.5435-5.5073 7.2078-0.57036 0.66429-1.037 1.6768-1.037 2.25 0 0.57322-0.45 1.0422-1 1.0422s-1 0.45-1 1c0 1.4607 1.7707 1.2217 2.7003-0.36452zm171.8 3.6359c-5.1539-1.2965-17.234-6.6454-19.25-8.5238-3.1911-2.9729-2.9267-7.2247 0.67308-10.824l2.9231-2.9231 7.3269-0.0151c4.0298-8e-3 9.1269-0.66353 11.327-1.4561 5.4253-1.9545 23.656-1.9405 33.9 0.0261 4.4549 0.8552 11.7 2.61 16.1 3.8996s14.75 3.59 23 5.1121c10.226 1.8866 15.629 3.3518 16.976 4.6038l1.9756 1.8364-1.9202 3.5656c-1.0561 1.9611-2.8241 4.0494-3.929 4.6406-1.3661 0.73113-6.0224 0.81488-14.555 0.26178-14.392-0.93289-13.278-0.92748-47.047-0.22828-14.025 0.29039-26.4 0.30158-27.5 0.0249zm770.5-36.858-20.5-1.4007-9-3.6093c-4.95-1.9851-10.732-4.3264-12.849-5.2028-4.5511-1.8842-8.651-6.8472-8.651-10.472 0-3.2303 5.4215-7.9132 11.306-9.7658 2.3065-0.72617 8.4687-1.4318 13.694-1.568 5.225-0.13622 14.225-0.54833 20-0.91579l10.5-0.66811 13 2.5161c7.15 1.3839 16.15 2.8054 20 3.1589s13.3 1.5521 21 2.6635c11.035 1.5927 16.647 1.8868 26.5 1.3886 7.5771-0.38311 14.469-0.21367 17.5 0.43023 9.5852 2.0364 24.025 4.1282 27.5 3.9837 11.37-0.47266 13 0.60511 13 8.594v5.4029l-6.4289 3.3245-21.036-0.52567c-11.57-0.28912-28.236-0.11168-37.036 0.3943-8.8 0.50599-24.325 1.3385-34.5 1.85-10.175 0.51149-19.625 1.1308-21 1.3761s-11.725-0.18416-23-0.95455zm-188.96-8.3476c-1.6096-3.0076-1.2321-6.6586 1.115-10.785l2.1502-3.7804-0.102-11.639-0.1021-11.639 1.8342-1.6599c1.211-1.0959 4.9508-1.9824 11.006-2.6089l9.1722-0.94894 2.9158 1.5078c5.8874 3.0445 6.4182 8.0278 1.9134 17.963-2.4461 5.3946-4.9865 8.64-12.632 16.138l-9.5707 9.3858h-3.3324c-2.2712 0-3.6621-0.61597-4.3676-1.9343z"/>
</svg>
